<svg xmlns="http://www.w3.org/2000/svg" style="display:none">
  <symbol id="i-dashboard" viewBox="0 0 24 24" fill="none" stroke="currentColor" stroke-width="1.75" stroke-linecap="round" stroke-linejoin="round"><rect x="3" y="3" width="7.5" height="9" rx="1.5"/><rect x="13.5" y="3" width="7.5" height="5.5" rx="1.5"/><rect x="13.5" y="11.5" width="7.5" height="9.5" rx="1.5"/><rect x="3" y="15" width="7.5" height="6" rx="1.5"/></symbol>
  <symbol id="i-folder" viewBox="0 0 24 24" fill="none" stroke="currentColor" stroke-width="1.75" stroke-linecap="round" stroke-linejoin="round"><path d="M3 7.5A1.5 1.5 0 0 1 4.5 6H9l2 2.25h8.5A1.5 1.5 0 0 1 21 9.75v8.75A1.5 1.5 0 0 1 19.5 20h-15A1.5 1.5 0 0 1 3 18.5z"/></symbol>
  <symbol id="i-file-text" viewBox="0 0 24 24" fill="none" stroke="currentColor" stroke-width="1.75" stroke-linecap="round" stroke-linejoin="round"><path d="M14 3H7a2 2 0 0 0-2 2v14a2 2 0 0 0 2 2h10a2 2 0 0 0 2-2V8z"/><path d="M14 3v5h5"/><path d="M9 13h6M9 17h6M9 9h2"/></symbol>
  <symbol id="i-kanban" viewBox="0 0 24 24" fill="none" stroke="currentColor" stroke-width="1.75" stroke-linecap="round" stroke-linejoin="round"><rect x="3" y="4" width="18" height="16" rx="2"/><path d="M9 4v16M15 4v16"/><path d="M5.5 8h1.5M11 8h2M17 8h1.5M11 11.5h2"/></symbol>
  <symbol id="i-gantt" viewBox="0 0 24 24" fill="none" stroke="currentColor" stroke-width="1.75" stroke-linecap="round" stroke-linejoin="round"><path d="M3 4v16h18"/><rect x="6" y="6" width="7" height="3" rx="1"/><rect x="9" y="11" width="8" height="3" rx="1"/><rect x="13" y="16" width="6" height="2.5" rx="1"/></symbol>
  <symbol id="i-calendar" viewBox="0 0 24 24" fill="none" stroke="currentColor" stroke-width="1.75" stroke-linecap="round" stroke-linejoin="round"><rect x="3.5" y="5" width="17" height="15.5" rx="2"/><path d="M3.5 10h17M8 3v4M16 3v4"/></symbol>
  <symbol id="i-file" viewBox="0 0 24 24" fill="none" stroke="currentColor" stroke-width="1.75" stroke-linecap="round" stroke-linejoin="round"><path d="M14 3H7a2 2 0 0 0-2 2v14a2 2 0 0 0 2 2h10a2 2 0 0 0 2-2V8z"/><path d="M14 3v5h5"/></symbol>
  <symbol id="i-check-circle" viewBox="0 0 24 24" fill="none" stroke="currentColor" stroke-width="1.75" stroke-linecap="round" stroke-linejoin="round"><circle cx="12" cy="12" r="9"/><path d="m8.5 12.2 2.4 2.4 4.6-5"/></symbol>
  <symbol id="i-chart" viewBox="0 0 24 24" fill="none" stroke="currentColor" stroke-width="1.75" stroke-linecap="round" stroke-linejoin="round"><path d="M4 20V10M10 20V4M16 20v-7M22 20H2"/></symbol>
  <symbol id="i-bell" viewBox="0 0 24 24" fill="none" stroke="currentColor" stroke-width="1.75" stroke-linecap="round" stroke-linejoin="round"><path d="M6 16V11a6 6 0 1 1 12 0v5l1.5 2h-15z"/><path d="M10 20.5a2.2 2.2 0 0 0 4 0"/></symbol>
  <symbol id="i-settings" viewBox="0 0 24 24" fill="none" stroke="currentColor" stroke-width="1.75" stroke-linecap="round" stroke-linejoin="round"><circle cx="12" cy="12" r="3"/><path d="M19.4 15a1.7 1.7 0 0 0 .34 1.87l.06.06a2 2 0 1 1-2.83 2.83l-.06-.06a1.7 1.7 0 0 0-1.87-.34 1.7 1.7 0 0 0-1 1.55V21a2 2 0 1 1-4 0v-.09a1.7 1.7 0 0 0-1.1-1.55 1.7 1.7 0 0 0-1.87.34l-.06.06a2 2 0 1 1-2.83-2.83l.06-.06A1.7 1.7 0 0 0 4.6 15a1.7 1.7 0 0 0-1.55-1H3a2 2 0 1 1 0-4h.09A1.7 1.7 0 0 0 4.6 8.9a1.7 1.7 0 0 0-.34-1.87l-.06-.06a2 2 0 1 1 2.83-2.83l.06.06a1.7 1.7 0 0 0 1.87.34H9a1.7 1.7 0 0 0 1-1.55V3a2 2 0 1 1 4 0v.09a1.7 1.7 0 0 0 1 1.55 1.7 1.7 0 0 0 1.87-.34l.06-.06a2 2 0 1 1 2.83 2.83l-.06.06a1.7 1.7 0 0 0-.34 1.87V9c.26.6.85 1 1.55 1H21a2 2 0 1 1 0 4h-.09a1.7 1.7 0 0 0-1.51 1z"/></symbol>
  <symbol id="i-users" viewBox="0 0 24 24" fill="none" stroke="currentColor" stroke-width="1.75" stroke-linecap="round" stroke-linejoin="round"><circle cx="9" cy="8" r="3.5"/><path d="M2.5 20a6.5 6.5 0 0 1 13 0"/><path d="M16 4.6a3.5 3.5 0 0 1 0 6.8M18 14.2a6.5 6.5 0 0 1 3.5 5.8"/></symbol>
  <symbol id="i-user" viewBox="0 0 24 24" fill="none" stroke="currentColor" stroke-width="1.75" stroke-linecap="round" stroke-linejoin="round"><circle cx="12" cy="8" r="4"/><path d="M4 21a8 8 0 0 1 16 0"/></symbol>
  <symbol id="i-shield" viewBox="0 0 24 24" fill="none" stroke="currentColor" stroke-width="1.75" stroke-linecap="round" stroke-linejoin="round"><path d="M12 3 4.5 6v5.5c0 4.6 3.1 8.2 7.5 9.5 4.4-1.3 7.5-4.9 7.5-9.5V6z"/><path d="m9 12 2 2 4-4"/></symbol>
  <symbol id="i-sun" viewBox="0 0 24 24" fill="none" stroke="currentColor" stroke-width="1.75" stroke-linecap="round" stroke-linejoin="round"><circle cx="12" cy="12" r="4"/><path d="M12 2.5v2M12 19.5v2M4.6 4.6l1.4 1.4M18 18l1.4 1.4M2.5 12h2M19.5 12h2M4.6 19.4 6 18M18 6l1.4-1.4"/></symbol>
  <symbol id="i-moon" viewBox="0 0 24 24" fill="none" stroke="currentColor" stroke-width="1.75" stroke-linecap="round" stroke-linejoin="round"><path d="M20.5 14.5A8.5 8.5 0 0 1 9.5 3.5a8.5 8.5 0 1 0 11 11z"/></symbol>
  <symbol id="i-monitor" viewBox="0 0 24 24" fill="none" stroke="currentColor" stroke-width="1.75" stroke-linecap="round" stroke-linejoin="round"><rect x="3" y="4" width="18" height="12.5" rx="2"/><path d="M8.5 20.5h7M12 16.5v4"/></symbol>
  <symbol id="i-globe" viewBox="0 0 24 24" fill="none" stroke="currentColor" stroke-width="1.75" stroke-linecap="round" stroke-linejoin="round"><circle cx="12" cy="12" r="9"/><path d="M3 12h18M12 3c2.5 2.6 3.8 5.6 3.8 9s-1.3 6.4-3.8 9c-2.5-2.6-3.8-5.6-3.8-9S9.5 5.6 12 3z"/></symbol>
  <symbol id="i-logout" viewBox="0 0 24 24" fill="none" stroke="currentColor" stroke-width="1.75" stroke-linecap="round" stroke-linejoin="round"><path d="M15 4h3a2 2 0 0 1 2 2v12a2 2 0 0 1-2 2h-3"/><path d="M10 16.5 5.5 12 10 7.5M5.5 12H16"/></symbol>
  <symbol id="i-menu" viewBox="0 0 24 24" fill="none" stroke="currentColor" stroke-width="1.75" stroke-linecap="round" stroke-linejoin="round"><path d="M4 7h16M4 12h16M4 17h16"/></symbol>
  <symbol id="i-x" viewBox="0 0 24 24" fill="none" stroke="currentColor" stroke-width="1.75" stroke-linecap="round" stroke-linejoin="round"><path d="M6 6l12 12M18 6 6 18"/></symbol>
  <symbol id="i-chevron-down" viewBox="0 0 24 24" fill="none" stroke="currentColor" stroke-width="1.75" stroke-linecap="round" stroke-linejoin="round"><path d="m6 9 6 6 6-6"/></symbol>
  <symbol id="i-chevron-right" viewBox="0 0 24 24" fill="none" stroke="currentColor" stroke-width="1.75" stroke-linecap="round" stroke-linejoin="round"><path d="m9 6 6 6-6 6"/></symbol>
  <symbol id="i-chevron-left" viewBox="0 0 24 24" fill="none" stroke="currentColor" stroke-width="1.75" stroke-linecap="round" stroke-linejoin="round"><path d="m15 6-6 6 6 6"/></symbol>
  <symbol id="i-plus" viewBox="0 0 24 24" fill="none" stroke="currentColor" stroke-width="1.75" stroke-linecap="round" stroke-linejoin="round"><path d="M12 5v14M5 12h14"/></symbol>
  <symbol id="i-search" viewBox="0 0 24 24" fill="none" stroke="currentColor" stroke-width="1.75" stroke-linecap="round" stroke-linejoin="round"><circle cx="11" cy="11" r="6.5"/><path d="m20 20-4.4-4.4"/></symbol>
  <symbol id="i-edit" viewBox="0 0 24 24" fill="none" stroke="currentColor" stroke-width="1.75" stroke-linecap="round" stroke-linejoin="round"><path d="M4 20h4L19 9a2.8 2.8 0 0 0-4-4L4 16z"/><path d="m13.5 6.5 4 4"/></symbol>
  <symbol id="i-lock" viewBox="0 0 24 24" fill="none" stroke="currentColor" stroke-width="1.75" stroke-linecap="round" stroke-linejoin="round"><rect x="5" y="10.5" width="14" height="10" rx="2"/><path d="M8 10.5V7.5a4 4 0 0 1 8 0v3"/></symbol>
  <symbol id="i-alert" viewBox="0 0 24 24" fill="none" stroke="currentColor" stroke-width="1.75" stroke-linecap="round" stroke-linejoin="round"><path d="M10.3 4.3 2.6 18a2 2 0 0 0 1.7 3h15.4a2 2 0 0 0 1.7-3L13.7 4.3a2 2 0 0 0-3.4 0z"/><path d="M12 9.5v4.5M12 17.5h.01"/></symbol>
  <symbol id="i-info" viewBox="0 0 24 24" fill="none" stroke="currentColor" stroke-width="1.75" stroke-linecap="round" stroke-linejoin="round"><circle cx="12" cy="12" r="9"/><path d="M12 11v5.5M12 7.5h.01"/></symbol>
  <symbol id="i-check" viewBox="0 0 24 24" fill="none" stroke="currentColor" stroke-width="1.75" stroke-linecap="round" stroke-linejoin="round"><path d="m5 12.5 4.5 4.5L19 7.5"/></symbol>
  <symbol id="i-clock" viewBox="0 0 24 24" fill="none" stroke="currentColor" stroke-width="1.75" stroke-linecap="round" stroke-linejoin="round"><circle cx="12" cy="12" r="9"/><path d="M12 7v5l3 2"/></symbol>
  <symbol id="i-download" viewBox="0 0 24 24" fill="none" stroke="currentColor" stroke-width="1.75" stroke-linecap="round" stroke-linejoin="round"><path d="M12 4v11M7 10.5l5 5 5-5M4.5 20h15"/></symbol>
  <symbol id="i-upload" viewBox="0 0 24 24" fill="none" stroke="currentColor" stroke-width="1.75" stroke-linecap="round" stroke-linejoin="round"><path d="M12 15.5v-11M7 9l5-5 5 5M4.5 20h15"/></symbol>
  <symbol id="i-filter" viewBox="0 0 24 24" fill="none" stroke="currentColor" stroke-width="1.75" stroke-linecap="round" stroke-linejoin="round"><path d="M4 5h16l-6.2 7.4V19l-3.6-1.8v-4.8z"/></symbol>
  <symbol id="i-eye" viewBox="0 0 24 24" fill="none" stroke="currentColor" stroke-width="1.75" stroke-linecap="round" stroke-linejoin="round"><path d="M2.5 12S6 5.5 12 5.5 21.5 12 21.5 12 18 18.5 12 18.5 2.5 12 2.5 12z"/><circle cx="12" cy="12" r="3"/></symbol>
  <symbol id="i-eye-off" viewBox="0 0 24 24" fill="none" stroke="currentColor" stroke-width="1.75" stroke-linecap="round" stroke-linejoin="round"><path d="M3 3l18 18M10.6 5.6A9.7 9.7 0 0 1 12 5.5c6 0 9.5 6.5 9.5 6.5a17 17 0 0 1-2.6 3.4M6.6 6.6C3.9 8.4 2.5 12 2.5 12S6 18.5 12 18.5c1.7 0 3.2-.5 4.5-1.2"/><path d="M9.9 9.9a3 3 0 0 0 4.2 4.2"/></symbol>
  <symbol id="i-key" viewBox="0 0 24 24" fill="none" stroke="currentColor" stroke-width="1.75" stroke-linecap="round" stroke-linejoin="round"><circle cx="8" cy="15" r="4"/><path d="m11 12 9-9M16 7l3 3M14.5 8.5l2 2"/></symbol>
  <symbol id="i-power" viewBox="0 0 24 24" fill="none" stroke="currentColor" stroke-width="1.75" stroke-linecap="round" stroke-linejoin="round"><path d="M12 3v8"/><path d="M6.4 6.6a8 8 0 1 0 11.2 0"/></symbol>
  <symbol id="i-arrow-left" viewBox="0 0 24 24" fill="none" stroke="currentColor" stroke-width="1.75" stroke-linecap="round" stroke-linejoin="round"><path d="M19 12H5M11 6l-6 6 6 6"/></symbol>
  <symbol id="i-arrow-right" viewBox="0 0 24 24" fill="none" stroke="currentColor" stroke-width="1.75" stroke-linecap="round" stroke-linejoin="round"><path d="M5 12h14M13 6l6 6-6 6"/></symbol>
  <symbol id="i-pause" viewBox="0 0 24 24" fill="none" stroke="currentColor" stroke-width="1.75" stroke-linecap="round" stroke-linejoin="round"><rect x="6.5" y="5" width="3.5" height="14" rx="1"/><rect x="14" y="5" width="3.5" height="14" rx="1"/></symbol>
  <symbol id="i-play" viewBox="0 0 24 24" fill="none" stroke="currentColor" stroke-width="1.75" stroke-linecap="round" stroke-linejoin="round"><path d="M7 4.5v15l12-7.5z"/></symbol>
  <symbol id="i-skip" viewBox="0 0 24 24" fill="none" stroke="currentColor" stroke-width="1.75" stroke-linecap="round" stroke-linejoin="round"><path d="M5 5v14l9-7zM18 5v14"/></symbol>
  <symbol id="i-link" viewBox="0 0 24 24" fill="none" stroke="currentColor" stroke-width="1.75" stroke-linecap="round" stroke-linejoin="round"><path d="M10 14a4 4 0 0 0 5.7 0l3-3a4 4 0 0 0-5.7-5.7l-1 1"/><path d="M14 10a4 4 0 0 0-5.7 0l-3 3a4 4 0 0 0 5.7 5.7l1-1"/></symbol>
  <symbol id="i-archive" viewBox="0 0 24 24" fill="none" stroke="currentColor" stroke-width="1.75" stroke-linecap="round" stroke-linejoin="round"><rect x="3" y="4" width="18" height="4.5" rx="1"/><path d="M5 8.5V19a1.5 1.5 0 0 0 1.5 1.5h11A1.5 1.5 0 0 0 19 19V8.5M10 12.5h4"/></symbol>
  <symbol id="i-refresh" viewBox="0 0 24 24" fill="none" stroke="currentColor" stroke-width="1.75" stroke-linecap="round" stroke-linejoin="round"><path d="M20 11a8 8 0 0 0-14.3-4.9L4 8M4 4v4h4M4 13a8 8 0 0 0 14.3 4.9L20 16M20 20v-4h-4"/></symbol>
  <symbol id="i-trash" viewBox="0 0 24 24" fill="none" stroke="currentColor" stroke-width="1.75" stroke-linecap="round" stroke-linejoin="round"><path d="M4 7h16M9.5 7V4.5h5V7M6 7l1 13h10l1-13"/></symbol>
  <symbol id="i-flag" viewBox="0 0 24 24" fill="none" stroke="currentColor" stroke-width="1.75" stroke-linecap="round" stroke-linejoin="round"><path d="M5 21V4M5 4h11l-2 4 2 4H5"/></symbol>
  <symbol id="i-layers" viewBox="0 0 24 24" fill="none" stroke="currentColor" stroke-width="1.75" stroke-linecap="round" stroke-linejoin="round"><path d="m12 3 9 5-9 5-9-5z"/><path d="m3 13 9 5 9-5"/></symbol>
</svg>
